<?xml version="1.0" standalone="no"?>
<!DOCTYPE svg PUBLIC "-//W3C//DTD SVG 20010904//EN"
 "http://www.w3.org/TR/2001/REC-SVG-20010904/DTD/svg10.dtd">
<svg version="1.0" xmlns="http://www.w3.org/2000/svg"
 width="512.000000pt" height="512.000000pt" viewBox="0 0 512.000000 512.000000"
 preserveAspectRatio="xMidYMid meet">

<g transform="translate(0.000000,512.000000) scale(0.100000,-0.100000)"
fill="#000000" stroke="none">
<path d="M3107 4238 c-16 -15 -66 -118 -138 -286 -110 -259 -112 -264 -138
-258 -239 53 -477 44 -691 -25 -297 -97 -575 -338 -718 -624 -85 -171 -125
-348 -124 -555 0 -273 79 -510 242 -729 66 -88 200 -219 283 -275 31 -22 57
-44 57 -50 0 -7 -13 -43 -30 -81 -16 -39 -30 -76 -30 -82 0 -21 38 -53 63 -53
31 0 49 22 80 95 19 44 30 60 44 58 10 -1 63 -18 117 -38 151 -54 250 -68 446
-62 135 4 182 9 260 30 356 96 637 323 799 644 17 34 31 66 31 70 0 4 -28 24
-61 43 -83 48 -187 159 -232 248 -51 104 -71 202 -64 326 9 175 77 319 209
441 l70 65 -58 80 c-110 153 -316 325 -468 391 -31 13 -56 27 -56 30 0 3 62
36 138 72 l139 66 66 149 c37 82 67 158 67 169 0 28 -22 44 -135 101 -134 66
-138 67 -168 40z"/>
</g>
</svg>
